<?xml version="1.0" encoding="UTF-8" standalone="no"?>
<svg
   version="1.0"
   width="60pt"
   height="47pt"
   viewBox="0 0 60 47"
   preserveAspectRatio="xMidYMid"
   id="svg1"
   xmlns="http://www.w3.org/2000/svg"
   xmlns:svg="http://www.w3.org/2000/svg">
  <defs
     id="defs1" />
  <g
     transform="matrix(0.09983075,0,0,-0.1,-18.541639,68.047106)"
     fill="#000000"
     stroke="none"
     id="g1">
    <path
       d="M 410,667 C 313,640 234,566 204,477 182,412 189,296 216,249 l 20,-34 h 249 249 l 20,34 c 27,47 34,163 12,229 -46,139 -216,229 -356,189 z m 102,-44 c 32,-29 16,-73 -27,-73 -43,0 -58,39 -28,72 20,22 31,23 55,1 z M 370,555 c 16,-19 10,-45 -15,-61 -39,-26 -86,31 -53,64 16,16 53,15 68,-3 z m 300,0 c 16,-19 10,-45 -15,-61 -39,-26 -86,31 -53,64 16,16 53,15 68,-3 z M 554,511 c 3,-4 -3,-37 -13,-73 -16,-55 -17,-67 -5,-83 31,-42 1,-105 -51,-105 -32,0 -65,33 -65,65 0,24 25,58 49,66 6,2 19,31 27,64 9,33 18,63 21,68 6,10 31,9 37,-2 z M 294,414 c 22,-8 21,-61 -1,-72 -27,-15 -63,3 -63,31 0,38 27,55 64,41 z m 434,-6 c 20,-20 14,-58 -10,-67 -33,-12 -58,4 -58,39 0,37 41,55 68,28 z"
       id="path1" />
  </g>
</svg>
